<?xml version="1.0" standalone="no"?>
<!DOCTYPE svg PUBLIC "-//W3C//DTD SVG 20010904//EN"
 "http://www.w3.org/TR/2001/REC-SVG-20010904/DTD/svg10.dtd">
<svg version="1.0" xmlns="http://www.w3.org/2000/svg"
 width="1000.000000pt" height="1000.000000pt" viewBox="0 0 1000.000000 1000.000000"
 preserveAspectRatio="xMidYMid meet">
<metadata>
Created by potrace 1.11, written by Peter Selinger 2001-2013
</metadata>
<g transform="translate(0.000000,1000.000000) scale(0.100000,-0.100000)"
fill="#000000" stroke="none">
<path d="M4960 8283 c-47 -19 -177 -68 -290 -108 -547 -193 -969 -378 -1187
-521 -115 -74 -210 -166 -225 -216 -9 -29 -15 -37 -27 -32 -9 3 -47 10 -86 16
-219 31 -700 -79 -1325 -304 -220 -79 -981 -387 -1000 -405 -12 -10 -15 -38
-15 -121 0 -131 23 -197 93 -272 46 -48 56 -53 457 -213 463 -186 605 -239
820 -307 l150 -48 5 -1353 5 -1354 34 -63 c60 -110 203 -231 397 -332 l79 -42
5 636 5 635 888 -467 887 -467 0 -563 c0 -539 1 -564 20 -601 25 -49 70 -87
146 -123 156 -73 336 -56 448 44 91 79 86 40 86 685 l0 568 920 475 c506 261
925 477 930 478 7 2 10 -215 10 -617 0 -342 3 -621 8 -621 18 0 257 123 314
161 81 55 169 143 199 199 l24 45 5 1369 5 1368 187 67 c103 37 375 144 604
237 376 153 421 173 459 211 65 65 89 122 93 223 2 60 0 90 -10 101 -17 21
-714 320 -976 419 -432 162 -833 280 -1072 316 -112 16 -306 16 -357 -1 -17
-5 -23 -3 -23 7 0 30 -64 110 -138 172 -185 153 -520 343 -977 551 -233 106
-464 205 -478 204 -7 0 -50 -17 -97 -36z m2230 -3327 l0 -714 -847 -430 c-467
-236 -885 -448 -930 -471 l-83 -41 0 692 0 693 197 100 c575 292 958 556 1115
766 l51 69 76 0 c95 0 384 34 419 49 1 1 2 -320 2 -713z m-4149 667 l146 -6
26 -42 c15 -23 58 -74 97 -113 203 -206 546 -428 1078 -695 l242 -122 0 -668
0 -668 -262 135 c-145 74 -544 281 -888 459 l-625 324 -3 708 -2 707 22 -6
c13 -3 89 -9 169 -13z"/>
</g>
</svg>
