<svg width="18" height="18" viewBox="0 0 18 18" fill="none" xmlns="http://www.w3.org/2000/svg">
<path fill-rule="evenodd" clip-rule="evenodd" d="M7.41173 0C3.31835 0 0 3.31835 0 7.41173C0 11.5051 3.31835 14.8235 7.41173 14.8235C9.07655 14.8235 10.6132 14.2746 11.8505 13.3479L16.1925 17.6899C16.606 18.1034 17.2764 18.1034 17.6899 17.6899C18.1034 17.2764 18.1034 16.606 17.6899 16.1925L13.3479 11.8505C14.2746 10.6132 14.8235 9.07655 14.8235 7.41173C14.8235 3.31835 11.5051 0 7.41173 0ZM2.11764 7.41173C2.11764 4.48788 4.48788 2.11764 7.41173 2.11764C10.3356 2.11764 12.7058 4.48788 12.7058 7.41173C12.7058 10.3356 10.3356 12.7058 7.41173 12.7058C4.48788 12.7058 2.11764 10.3356 2.11764 7.41173Z" fill="currentColor"/>
</svg>
